<svg width="208" height="144" viewBox="0 0 208 144" fill="none" xmlns="http://www.w3.org/2000/svg">
<g clip-path="url(#clip0_724_1696)">
<rect y="72.874" width="193" height="76" rx="20" transform="rotate(-22.1842 0 72.874)" fill="url(#paint0_radial_724_1696)"/>
<g clip-path="url(#clip1_724_1696)">
<path d="M46.0552 95.3175C44.433 91.2563 48.0564 85.9913 54.1484 83.558C60.2403 81.1248 66.4939 82.4446 68.1161 86.5058C69.7383 90.5672 66.1147 95.8321 60.0229 98.2653C53.9308 100.699 47.6774 99.3789 46.0552 95.3175Z" fill="#1ABCFE"/>
<path d="M29.8688 118.837C28.2466 114.775 31.87 109.51 37.962 107.077L48.9925 102.671L51.9297 110.025C53.5519 114.086 49.9285 119.351 43.8365 121.784C37.7445 124.218 31.491 122.898 29.8688 118.837Z" fill="#0ACF83"/>
<path d="M37.2439 73.2568L43.1183 87.9641L54.1488 83.5582C60.2408 81.1249 63.8643 75.8601 62.2421 71.7988C60.6199 67.7375 54.3664 66.4177 48.2744 68.851L37.2439 73.2568Z" fill="#FF7262"/>
<path d="M18.1197 89.422C19.7419 93.4833 25.9954 94.8031 32.0874 92.3698L43.1179 87.9639L37.2434 73.2567L26.213 77.6625C20.121 80.0958 16.4975 85.3607 18.1197 89.422Z" fill="#F24E1E"/>
<path d="M23.9946 104.13C25.6168 108.191 31.8703 109.511 37.9623 107.077L48.9928 102.671L43.1183 87.9642L32.0878 92.37C25.9959 94.8033 22.3724 100.068 23.9946 104.13Z" fill="#A259FF"/>
</g>
<path d="M85.6081 72.562L86.9129 72.0299L89.822 79.1642C90.1223 79.9007 90.2169 80.6292 90.1056 81.3495C89.9965 82.0649 89.6959 82.7172 89.2039 83.3064C88.7105 83.8921 88.0412 84.3574 87.1959 84.702C86.3506 85.0467 85.5468 85.1822 84.7845 85.1085C84.0208 85.0313 83.348 84.7759 82.7662 84.3423C82.1865 83.9037 81.7465 83.3162 81.4461 82.5796L78.537 75.4454L79.8418 74.9133L82.708 81.9423C82.9225 82.4684 83.2292 82.8895 83.6281 83.2055C84.0255 83.5179 84.486 83.7044 85.0098 83.7649C85.5356 83.8205 86.0984 83.726 86.6982 83.4814C87.2979 83.2369 87.7663 82.9109 88.1034 82.5035C88.439 82.0925 88.6378 81.6372 88.6999 81.1373C88.764 80.6326 88.6888 80.1171 88.4743 79.591L85.6081 72.562ZM90.8233 70.4354L95.217 81.2104L93.9122 81.7424L89.5185 70.9674L90.8233 70.4354ZM96.8742 67.3789L98.6623 81.6954L97.5258 82.1588L95.7378 67.8423L96.8742 67.3789ZM105.791 64.3318L107.096 63.7997L110.005 70.934C110.306 71.6705 110.4 72.399 110.289 73.1193C110.18 73.8347 109.879 74.487 109.387 75.0762C108.894 75.6619 108.225 76.1272 107.379 76.4718C106.534 76.8165 105.73 76.952 104.968 76.8783C104.204 76.8012 103.531 76.5457 102.95 76.1121C102.37 75.6735 101.93 75.086 101.629 74.3494L98.7204 67.2152L100.025 66.6831L102.891 73.7121C103.106 74.2382 103.413 74.6593 103.811 74.9753C104.209 75.2877 104.669 75.4742 105.193 75.5347C105.719 75.5903 106.282 75.4958 106.882 75.2512C107.481 75.0067 107.95 74.6807 108.287 74.2733C108.622 73.8623 108.821 73.407 108.883 72.9071C108.947 72.4024 108.872 71.8869 108.658 71.3608L105.791 64.3318ZM110.333 62.4798L114.939 65.8296L115.023 65.7953L115.973 60.18L117.509 59.5535L116.318 66.3226L121.903 70.3285L120.367 70.9549L115.795 67.6893L115.711 67.7236L114.727 73.2548L113.191 73.8812L114.466 67.0778L108.797 63.1063L110.333 62.4798Z" fill="white"/>
</g>
<rect x="1.95534" y="73.6966" width="190" height="73" rx="18.5" transform="rotate(-22.1842 1.95534 73.6966)" stroke="url(#paint1_radial_724_1696)" stroke-width="3"/>
<rect x="1.95534" y="73.6966" width="190" height="73" rx="18.5" transform="rotate(-22.1842 1.95534 73.6966)" stroke="url(#paint2_radial_724_1696)" stroke-width="3"/>
<rect x="1.95534" y="73.6966" width="190" height="73" rx="18.5" transform="rotate(-22.1842 1.95534 73.6966)" stroke="url(#paint3_linear_724_1696)" stroke-width="3"/>
<defs>
<radialGradient id="paint0_radial_724_1696" cx="0" cy="0" r="1" gradientUnits="userSpaceOnUse" gradientTransform="translate(1.73599 75.1352) rotate(20.8697) scale(201.524 214.687)">
<stop stop-color="white" stop-opacity="0.4"/>
<stop offset="1" stop-color="white" stop-opacity="0"/>
</radialGradient>
<radialGradient id="paint1_radial_724_1696" cx="0" cy="0" r="1" gradientUnits="userSpaceOnUse" gradientTransform="translate(1.73599 75.1352) rotate(20.8697) scale(201.524 214.687)">
<stop stop-color="#D8D8D8" stop-opacity="0"/>
<stop offset="1" stop-color="#D8D8D8"/>
</radialGradient>
<radialGradient id="paint2_radial_724_1696" cx="0" cy="0" r="1" gradientUnits="userSpaceOnUse" gradientTransform="translate(2.65502 146.55) rotate(-20.8626) scale(200.531 213.348)">
<stop stop-color="#D8D8D8" stop-opacity="0"/>
<stop offset="1" stop-color="#D8D8D8"/>
</radialGradient>
<linearGradient id="paint3_linear_724_1696" x1="3.57407" y1="74.9468" x2="118.641" y2="208.451" gradientUnits="userSpaceOnUse">
<stop stop-color="white" stop-opacity="0.9"/>
<stop offset="1" stop-color="white" stop-opacity="0"/>
</linearGradient>
<clipPath id="clip0_724_1696">
<rect y="72.874" width="193" height="76" rx="20" transform="rotate(-22.1842 0 72.874)" fill="white"/>
</clipPath>
<clipPath id="clip1_724_1696">
<rect width="48" height="48" fill="white" transform="translate(14.865 81.9321) rotate(-21.773)"/>
</clipPath>
</defs>
</svg>
