<svg width="208" height="144" viewBox="0 0 208 144" fill="none" xmlns="http://www.w3.org/2000/svg">
<g clip-path="url(#clip0_724_1687)">
<rect y="72.874" width="193" height="76" rx="20" transform="rotate(-22.1842 0 72.874)" fill="url(#paint0_radial_724_1687)"/>
<g clip-path="url(#clip1_724_1687)">
<path d="M35.7144 113.167C35.7144 113.167 34.4519 114.805 37.4193 113.974C41.0142 112.966 42.7466 112.193 46.2391 109.935C46.2391 109.935 47.4902 110.152 49.1002 110.126C42.0965 117.222 29.809 117.746 35.7144 113.167ZM32.742 108.845C32.742 108.845 31.4455 110.977 34.4026 110.113C38.2263 108.996 41.136 107.846 45.7579 104.835C45.7579 104.835 46.7367 105.256 47.9833 105.196C38.9485 112.379 26.3958 114.274 32.742 108.845Z" fill="#0074BD"/>
<path d="M38.2003 97.23C41.2744 98.785 39.5165 102.027 39.5165 102.027C39.5165 102.027 43.7081 97.1219 39.8707 94.6831C36.2883 92.412 33.8943 91.5346 41.1114 82.1979C41.1115 82.1982 27.7843 91.9534 38.2003 97.23Z" fill="#EA2D2E"/>
<path d="M56.072 108.959C56.072 108.959 57.7095 109.47 55.4524 111.301C51.1605 114.782 35.8546 121.545 30.7899 121.427C28.97 121.385 31.489 119.269 32.3209 118.7C33.188 118.107 33.7464 117.923 33.7464 117.923C31.5328 117.413 23.6001 124.834 30.364 123.277C48.8074 119.027 61.3844 109.155 56.072 108.959ZM32.5709 103.18C32.5709 103.18 25.4564 108.263 30.8219 106.869C33.0879 106.28 37.3424 104.468 41.1968 102.506C44.3456 100.902 47.3791 98.9831 47.3791 98.9831C47.3791 98.9831 46.4314 99.9443 45.8307 100.851C38.6878 106.218 22.8352 111.539 26.4071 107.573C29.4266 104.22 32.5709 103.18 32.5709 103.18ZM49.9234 105.316C56.3333 97.7747 50.917 95.2479 48.5152 96.8651C47.928 97.2605 47.6876 97.4942 47.6876 97.4942C47.6876 97.4942 47.7737 97.0221 48.1636 96.6752C52.6118 92.7332 59.5436 98.3131 49.8482 105.596C49.8479 105.596 49.9266 105.432 49.9234 105.316Z" fill="#0074BD"/>
<path d="M32.0715 75.5583C32.0715 75.5583 38.4119 78.2279 32.4612 88.7325C27.6903 97.16 34.4148 98.113 37.4937 101.081C31.8743 99.0501 27.5303 97.0159 28.3134 93.155C29.4644 87.4882 36.8059 81.9735 32.0715 75.5583Z" fill="#EA2D2E"/>
<path d="M41.2607 122.204C49.2688 119.521 60.9401 113.856 59.7178 110.047C59.7178 110.047 59.7432 111.669 54.291 115.188C48.1403 119.159 39.8622 122.364 34.6613 123.546C34.6614 123.547 35.9968 123.966 41.2607 122.204Z" fill="#0074BD"/>
</g>
<path d="M73.0192 77.51L74.324 76.9779L77.4648 84.6804C77.7452 85.3678 77.857 86.0033 77.8004 86.5868C77.7438 87.1703 77.5366 87.6803 77.1786 88.1167C76.8207 88.5531 76.3296 88.8985 75.7053 89.1531C75.116 89.3934 74.548 89.5003 74.0013 89.4737C73.4531 89.4436 72.966 89.2822 72.5399 88.9896C72.1138 88.697 71.7884 88.2754 71.5639 87.7247L72.8476 87.2013C72.9721 87.5064 73.1562 87.7422 73.4 87.9087C73.6458 88.0703 73.9278 88.1598 74.2458 88.1774C74.5639 88.195 74.893 88.1344 75.2333 87.9957C75.6086 87.8426 75.8956 87.6335 76.0943 87.3684C76.293 87.1033 76.3985 86.7903 76.4109 86.4294C76.4253 86.0635 76.3417 85.6579 76.1601 85.2124L73.0192 77.51ZM83.6195 85.975C83.1074 86.1838 82.6033 86.2769 82.1073 86.2542C81.6098 86.2279 81.1632 86.0807 80.7675 85.8126C80.3704 85.5409 80.0645 85.142 79.85 84.6159C79.6612 84.1529 79.5994 83.7404 79.6645 83.3784C79.7282 83.0129 79.879 82.6855 80.1169 82.3963C80.3548 82.107 80.6415 81.8469 80.9769 81.6161C81.3143 81.3803 81.6607 81.1613 82.016 80.9592C82.4813 80.6958 82.8601 80.4861 83.1524 80.3301C83.4467 80.1692 83.6476 80.0198 83.755 79.8819C83.8659 79.7426 83.8806 79.573 83.7991 79.373L83.7819 79.3309C83.5702 78.8118 83.2637 78.4664 82.8623 78.2946C82.4644 78.1214 81.9796 78.1514 81.4079 78.3845C80.8152 78.6263 80.4033 78.9455 80.1725 79.3424C79.9416 79.7393 79.8178 80.1129 79.8012 80.4633L78.451 80.523C78.4612 79.9461 78.5859 79.4494 78.8251 79.0328C79.0664 78.6112 79.3735 78.261 79.7466 77.982C80.1217 77.6982 80.5127 77.4733 80.9196 77.3074C81.1791 77.2015 81.4902 77.1115 81.8526 77.0374C82.2172 76.9583 82.5959 76.949 82.9888 77.0097C83.3852 77.069 83.7666 77.2468 84.1329 77.5433C84.4993 77.8398 84.8133 78.309 85.075 78.9509L87.2462 84.2753L86.0045 84.7816L85.5583 83.6872L85.4951 83.713C85.4825 83.9227 85.4187 84.1675 85.3038 84.4476C85.1889 84.7276 84.997 85.0042 84.728 85.2776C84.459 85.5509 84.0895 85.7834 83.6195 85.975ZM83.3541 84.7824C83.8451 84.5822 84.2197 84.3169 84.4777 83.9867C84.7393 83.6551 84.8938 83.3016 84.9412 82.9264C84.9922 82.5497 84.949 82.193 84.8117 81.8563L84.3483 80.7199C84.3214 80.8045 84.2293 80.9096 84.0718 81.0351C83.9165 81.1557 83.7309 81.2825 83.5152 81.4155C83.3015 81.5436 83.0916 81.6659 82.8856 81.7827C82.6817 81.8945 82.5166 81.9863 82.3905 82.0582C82.085 82.2319 81.8112 82.4233 81.5692 82.6324C81.3293 82.8366 81.1614 83.0667 81.0653 83.3226C80.9713 83.5737 80.9887 83.857 81.1174 84.1727C81.2933 84.6041 81.5859 84.8653 81.9952 84.9561C82.4066 85.042 82.8595 84.9841 83.3541 84.7824ZM92.5359 72.6933L92.8428 81.9931L91.5801 82.508L85.2964 75.6453L86.6433 75.0961L91.5 80.6262L91.5842 80.5919L91.189 73.2425L92.5359 72.6933ZM99.6794 79.4262C99.1673 79.6351 98.6632 79.7281 98.1672 79.7054C97.6697 79.6792 97.2231 79.532 96.8274 79.2638C96.4302 78.9921 96.1244 78.5932 95.9099 78.0671C95.7211 77.6041 95.6592 77.1917 95.7243 76.8297C95.788 76.4642 95.9388 76.1368 96.1768 75.8475C96.4147 75.5582 96.7013 75.2982 97.0367 75.0673C97.3742 74.8315 97.7206 74.6126 98.0759 74.4104C98.5412 74.147 98.9199 73.9374 99.2122 73.7814C99.5066 73.6204 99.7075 73.471 99.8149 73.3331C99.9258 73.1938 99.9405 73.0242 99.8589 72.8243L99.8418 72.7822C99.6301 72.2631 99.3236 71.9176 98.9222 71.7459C98.5243 71.5727 98.0395 71.6027 97.4678 71.8358C96.875 72.0775 96.4632 72.3968 96.2323 72.7936C96.0014 73.1905 95.8777 73.5641 95.861 73.9145L94.5109 73.9742C94.5211 73.3973 94.6458 72.9006 94.885 72.484C95.1263 72.0625 95.4334 71.7122 95.8065 71.4333C96.1816 71.1494 96.5726 70.9245 96.9795 70.7586C97.239 70.6528 97.55 70.5628 97.9125 70.4886C98.277 70.4095 98.6557 70.4003 99.0487 70.461C99.4451 70.5202 99.8264 70.6981 100.193 70.9946C100.559 71.2911 100.873 71.7603 101.135 72.4021L103.306 77.7265L102.064 78.2328L101.618 77.1385L101.555 77.1642C101.542 77.3739 101.479 77.6188 101.364 77.8988C101.249 78.1788 101.057 78.4555 100.788 78.7288C100.519 79.0021 100.149 79.2346 99.6794 79.4262ZM99.414 78.2336C99.905 78.0334 100.28 77.7682 100.538 77.438C100.799 77.1063 100.954 76.7529 101.001 76.3776C101.052 76.001 101.009 75.6443 100.872 75.3076L100.408 74.1711C100.381 74.2557 100.289 74.3608 100.132 74.4864C99.9764 74.607 99.7908 74.7338 99.575 74.8668C99.3614 74.9948 99.1515 75.1172 98.9455 75.2339C98.7415 75.3457 98.5765 75.4376 98.4504 75.5094C98.1448 75.6831 97.8711 75.8745 97.6291 76.0836C97.3892 76.2878 97.2212 76.5179 97.1252 76.7739C97.0312 77.0249 97.0485 77.3083 97.1773 77.624C97.3532 78.0554 97.6458 78.3165 98.0551 78.4073C98.4664 78.4932 98.9194 78.4353 99.414 78.2336ZM108.338 66.2497C108.057 65.7423 107.633 65.4328 107.063 65.3212C106.494 65.2097 105.884 65.2869 105.231 65.553C104.754 65.7475 104.368 65.9948 104.073 66.295C103.782 66.5938 103.592 66.919 103.502 67.2706C103.416 67.6208 103.442 67.9677 103.583 68.3115C103.7 68.5991 103.869 68.8185 104.09 68.9696C104.314 69.1159 104.562 69.213 104.835 69.2611C105.107 69.3058 105.38 69.3233 105.654 69.3137C105.927 69.3006 106.174 69.2796 106.395 69.2507L107.61 69.0991C107.921 69.0584 108.274 69.0328 108.671 69.0224C109.071 69.0106 109.475 69.0525 109.882 69.1483C110.291 69.2391 110.67 69.4159 111.019 69.6788C111.367 69.9417 111.644 70.3256 111.85 70.8307C112.088 71.4129 112.15 72.0013 112.036 72.5957C111.926 73.1887 111.637 73.7425 111.167 74.257C110.702 74.7701 110.055 75.1954 109.227 75.5329C108.456 75.8476 107.737 75.9955 107.07 75.9768C106.408 75.9566 105.824 75.7895 105.32 75.4757C104.819 75.1604 104.427 74.7167 104.145 74.1446L105.492 73.5954C105.693 73.9879 105.967 74.2689 106.314 74.4382C106.663 74.6026 107.049 74.6746 107.47 74.6542C107.893 74.6288 108.319 74.5289 108.747 74.3544C109.245 74.1513 109.659 73.8883 109.99 73.5653C110.319 73.2389 110.54 72.8829 110.652 72.4973C110.764 72.1083 110.739 71.7174 110.579 71.3245C110.433 70.9668 110.215 70.7164 109.923 70.5735C109.632 70.4305 109.294 70.3554 108.911 70.3481C108.527 70.3408 108.125 70.3618 107.703 70.411L106.223 70.5729C105.282 70.6741 104.475 70.6004 103.801 70.3517C103.127 70.1029 102.642 69.6156 102.346 68.8895C102.1 68.2862 102.048 67.6936 102.191 67.1116C102.337 66.5247 102.635 65.9937 103.088 65.5187C103.543 65.0388 104.114 64.6587 104.801 64.3783C105.496 64.0951 106.164 63.9679 106.806 63.9967C107.446 64.022 108.011 64.1842 108.501 64.4834C108.995 64.7811 109.361 65.1983 109.601 65.7348L108.338 66.2497ZM118.372 71.7795C117.614 72.0884 116.889 72.1755 116.196 72.0409C115.503 71.9063 114.881 71.5851 114.33 71.0774C113.78 70.5697 113.34 69.9125 113.011 69.1058C112.676 68.285 112.532 67.4992 112.577 66.7484C112.625 65.9926 112.848 65.3267 113.248 64.7508C113.649 64.1699 114.214 63.7307 114.944 63.4332C115.512 63.2015 116.067 63.0979 116.609 63.1225C117.151 63.147 117.644 63.2893 118.09 63.5494C118.536 63.8095 118.896 64.1778 119.172 64.6542L117.931 65.1605C117.686 64.8309 117.343 64.5905 116.9 64.4394C116.46 64.2834 115.967 64.3169 115.42 64.54C114.936 64.7374 114.563 65.0367 114.301 65.438C114.041 65.8344 113.903 66.302 113.885 66.8409C113.87 67.3749 113.986 67.9471 114.235 68.5574C114.49 69.1817 114.81 69.6853 115.195 70.0682C115.584 70.4497 116.011 70.6948 116.477 70.8035C116.946 70.9108 117.426 70.8643 117.917 70.6641C118.24 70.5325 118.51 70.357 118.727 70.1374C118.944 69.9179 119.101 69.6658 119.198 69.381C119.294 69.0961 119.321 68.7907 119.278 68.4646L120.52 67.9583C120.644 68.4639 120.646 68.9644 120.525 69.4597C120.405 69.95 120.165 70.3997 119.804 70.8087C119.446 71.2127 118.968 71.5363 118.372 71.7795ZM123.296 69.5751L120.001 61.4939L121.2 61.0048L121.698 62.2254L121.782 62.191C121.766 61.7311 121.901 61.298 122.185 60.8916C122.469 60.4853 122.853 60.1834 123.337 59.986C123.429 59.9488 123.543 59.9041 123.682 59.8518C123.82 59.7996 123.925 59.7626 123.998 59.741L124.513 61.0037C124.467 61.0104 124.364 61.0339 124.205 61.0744C124.047 61.1099 123.886 61.1613 123.721 61.2285C123.329 61.3887 123.011 61.6141 122.77 61.9048C122.531 62.1906 122.38 62.5138 122.319 62.8743C122.259 63.23 122.304 63.5901 122.452 63.9549L124.538 69.0688L123.296 69.5751ZM128.808 67.3273L125.513 59.2461L126.755 58.7398L130.05 66.821L128.808 67.3273ZM125.595 57.6418C125.353 57.7405 125.111 57.7431 124.868 57.6498C124.629 57.555 124.463 57.3919 124.368 57.1604C124.274 56.9289 124.279 56.6957 124.384 56.4608C124.492 56.2244 124.667 56.0569 124.909 55.9582C125.151 55.8595 125.391 55.8575 125.63 55.9523C125.873 56.0456 126.042 56.2081 126.136 56.4396C126.23 56.671 126.223 56.905 126.115 57.1413C126.011 57.3763 125.837 57.5431 125.595 57.6418ZM133.56 68.9241L129.029 57.8124L130.229 57.3233L130.752 58.607L130.899 58.547C130.933 58.3695 130.987 58.1391 131.059 57.8559C131.134 57.5677 131.289 57.2754 131.524 56.9791C131.761 56.6779 132.143 56.42 132.669 56.2055C133.349 55.928 134.019 55.8535 134.676 55.9821C135.334 56.1106 135.936 56.4277 136.482 56.9333C137.027 57.4389 137.473 58.1162 137.819 58.965C138.168 59.8208 138.325 60.622 138.29 61.3685C138.254 62.1116 138.048 62.7601 137.672 63.3141C137.295 63.8645 136.77 64.2771 136.097 64.5517C135.578 64.7634 135.127 64.8469 134.745 64.8023C134.361 64.7543 134.04 64.6541 133.782 64.5017C133.522 64.3459 133.316 64.2129 133.165 64.1028L133.06 64.1457L134.802 68.4178L133.56 68.9241ZM131.897 61.3553C132.146 61.9656 132.455 62.4676 132.824 62.8611C133.192 63.2512 133.601 63.5076 134.052 63.6305C134.502 63.7499 134.976 63.7081 135.474 63.505C135.993 63.2933 136.37 62.9799 136.606 62.5647C136.844 62.1446 136.955 61.6655 136.94 61.1275C136.927 60.5846 136.804 60.0255 136.569 59.4502C136.338 58.882 136.041 58.4057 135.68 58.0212C135.32 57.6318 134.911 57.3754 134.452 57.2518C133.994 57.1233 133.503 57.1664 132.976 57.3809C132.471 57.5869 132.099 57.8879 131.86 58.2842C131.619 58.6769 131.504 59.137 131.515 59.6644C131.524 60.1884 131.651 60.752 131.897 61.3553ZM141.572 52.6979L142.001 53.7501L137.813 55.4578L137.384 54.4056L141.572 52.6979ZM137.815 51.9717L139.057 51.4654L142.197 59.1678C142.34 59.5186 142.499 59.7609 142.672 59.8948C142.847 60.0238 143.028 60.0852 143.213 60.079C143.401 60.0679 143.586 60.0252 143.768 59.9508C143.905 59.895 144.015 59.8422 144.097 59.7924C144.177 59.7391 144.242 59.6965 144.29 59.6645L144.997 60.6769C144.926 60.7428 144.821 60.8223 144.683 60.9154C144.547 61.012 144.363 61.1074 144.131 61.2018C143.781 61.3449 143.406 61.4096 143.008 61.3961C142.613 61.3812 142.242 61.2644 141.896 61.0459C141.552 60.8259 141.285 60.4809 141.093 60.0109L137.815 51.9717Z" fill="white"/>
</g>
<rect x="1.95534" y="73.6966" width="190" height="73" rx="18.5" transform="rotate(-22.1842 1.95534 73.6966)" stroke="url(#paint1_radial_724_1687)" stroke-width="3"/>
<rect x="1.95534" y="73.6966" width="190" height="73" rx="18.5" transform="rotate(-22.1842 1.95534 73.6966)" stroke="url(#paint2_radial_724_1687)" stroke-width="3"/>
<rect x="1.95534" y="73.6966" width="190" height="73" rx="18.5" transform="rotate(-22.1842 1.95534 73.6966)" stroke="url(#paint3_linear_724_1687)" stroke-width="3"/>
<defs>
<radialGradient id="paint0_radial_724_1687" cx="0" cy="0" r="1" gradientUnits="userSpaceOnUse" gradientTransform="translate(1.73599 75.1352) rotate(20.8697) scale(201.524 214.687)">
<stop stop-color="white" stop-opacity="0.4"/>
<stop offset="1" stop-color="white" stop-opacity="0"/>
</radialGradient>
<radialGradient id="paint1_radial_724_1687" cx="0" cy="0" r="1" gradientUnits="userSpaceOnUse" gradientTransform="translate(1.73599 75.1352) rotate(20.8697) scale(201.524 214.687)">
<stop stop-color="#D8D8D8" stop-opacity="0"/>
<stop offset="1" stop-color="#D8D8D8"/>
</radialGradient>
<radialGradient id="paint2_radial_724_1687" cx="0" cy="0" r="1" gradientUnits="userSpaceOnUse" gradientTransform="translate(2.65502 146.55) rotate(-20.8626) scale(200.531 213.348)">
<stop stop-color="#D8D8D8" stop-opacity="0"/>
<stop offset="1" stop-color="#D8D8D8"/>
</radialGradient>
<linearGradient id="paint3_linear_724_1687" x1="3.57407" y1="74.9468" x2="118.641" y2="208.451" gradientUnits="userSpaceOnUse">
<stop stop-color="white" stop-opacity="0.9"/>
<stop offset="1" stop-color="white" stop-opacity="0"/>
</linearGradient>
<clipPath id="clip0_724_1687">
<rect y="72.874" width="193" height="76" rx="20" transform="rotate(-22.1842 0 72.874)" fill="white"/>
</clipPath>
<clipPath id="clip1_724_1687">
<rect width="48" height="48" fill="white" transform="translate(5.28613 85.8379) rotate(-22.1842)"/>
</clipPath>
</defs>
</svg>
